<svg xmlns="http://www.w3.org/2000/svg" width="13.566" height="15.504" viewBox="0 0 13.566 15.504">
  <path id="calander_icon" d="M0,14.05A1.454,1.454,0,0,0,1.453,15.5H12.112a1.454,1.454,0,0,0,1.453-1.453V5.814H0ZM9.69,8.115a.364.364,0,0,1,.363-.363h1.211a.364.364,0,0,1,.363.363V9.327a.364.364,0,0,1-.363.363H10.053a.364.364,0,0,1-.363-.363Zm0,3.876a.364.364,0,0,1,.363-.363h1.211a.364.364,0,0,1,.363.363V13.2a.364.364,0,0,1-.363.363H10.053A.364.364,0,0,1,9.69,13.2ZM5.814,8.115a.364.364,0,0,1,.363-.363H7.389a.364.364,0,0,1,.363.363V9.327a.364.364,0,0,1-.363.363H6.177a.364.364,0,0,1-.363-.363Zm0,3.876a.364.364,0,0,1,.363-.363H7.389a.364.364,0,0,1,.363.363V13.2a.364.364,0,0,1-.363.363H6.177a.364.364,0,0,1-.363-.363ZM1.938,8.115A.364.364,0,0,1,2.3,7.752H3.513a.364.364,0,0,1,.363.363V9.327a.364.364,0,0,1-.363.363H2.3a.364.364,0,0,1-.363-.363Zm0,3.876a.364.364,0,0,1,.363-.363H3.513a.364.364,0,0,1,.363.363V13.2a.364.364,0,0,1-.363.363H2.3a.364.364,0,0,1-.363-.363ZM12.112,1.938H10.659V.484A.486.486,0,0,0,10.174,0H9.205a.486.486,0,0,0-.484.484V1.938H4.845V.484A.486.486,0,0,0,4.36,0H3.391a.486.486,0,0,0-.484.484V1.938H1.453A1.454,1.454,0,0,0,0,3.391V4.845H13.566V3.391A1.454,1.454,0,0,0,12.112,1.938Z" fill="#fa9c50"/>
</svg>
