<svg xmlns="http://www.w3.org/2000/svg" width="17" height="17.002" viewBox="0 0 17 17.002">
  <path id="dashboard_icon" data-name="dashboard icon" d="M51.9,176a2.624,2.624,0,0,1-2.572-2.634V170.8a2.6,2.6,0,0,1,2.572-2.626h2.517A2.623,2.623,0,0,1,57,170.8v2.569A2.633,2.633,0,0,1,54.422,176Zm-1.192-5.2v2.569a1.218,1.218,0,0,0,.347.863,1.163,1.163,0,0,0,.836.358h2.534a1.164,1.164,0,0,0,.836-.358,1.215,1.215,0,0,0,.346-.863V170.8a1.224,1.224,0,0,0-.349-.86,1.173,1.173,0,0,0-.842-.358H51.9a1.205,1.205,0,0,0-1.187,1.218Zm-8.133,5.19A2.663,2.663,0,0,1,40,173.361V170.8a2.655,2.655,0,0,1,.756-1.86,2.543,2.543,0,0,1,1.824-.766h1.033a.688.688,0,0,1,.662.328.72.72,0,0,1,0,.752.689.689,0,0,1-.662.329H42.581a1.211,1.211,0,0,0-1.2,1.216v2.537a1.236,1.236,0,0,0,1.2,1.216h2.532a1.175,1.175,0,0,0,.847-.358,1.227,1.227,0,0,0,.352-.863v-3.8a.716.716,0,0,1,.311-.728.683.683,0,0,1,.778.022.716.716,0,0,1,.268.745v3.793a2.607,2.607,0,0,1-2.579,2.633h0Zm10.836-9.136a.711.711,0,0,1,0-1.41h1.01a1.184,1.184,0,0,0,.848-.367,1.241,1.241,0,0,0,.343-.874v-2.568a1.22,1.22,0,0,0-1.191-1.216H51.9a1.2,1.2,0,0,0-1.192,1.216v3.842a.708.708,0,0,1-.71.693.681.681,0,0,1-.484-.219.711.711,0,0,1-.183-.506v-3.809a2.654,2.654,0,0,1,.751-1.862A2.546,2.546,0,0,1,51.9,159h2.517a2.663,2.663,0,0,1,2.572,2.634v2.561a2.655,2.655,0,0,1-.73,1.866,2.55,2.55,0,0,1-1.809.793Zm-8.311-.024h-2.52A2.624,2.624,0,0,1,40,164.2v-2.569A2.633,2.633,0,0,1,42.581,159H45.1a2.622,2.622,0,0,1,2.576,2.634V164.2a2.636,2.636,0,0,1-.756,1.859A2.53,2.53,0,0,1,45.1,166.829Zm-3.378-6.063a1.236,1.236,0,0,0-.358.868V164.2a1.233,1.233,0,0,0,.349.884,1.181,1.181,0,0,0,.84.358H45.1a1.18,1.18,0,0,0,.849-.367,1.232,1.232,0,0,0,.343-.874v-2.57a1.218,1.218,0,0,0-1.192-1.216H42.557A1.172,1.172,0,0,0,41.723,160.765Z" transform="translate(-40.001 -159)" fill="#55a0ff"/>
</svg>
