<svg id="Icon_ionic-ios-create" data-name="Icon ionic-ios-create" xmlns="http://www.w3.org/2000/svg" width="19.695" height="19.688" viewBox="0 0 19.695 19.688">
  <g id="Group_291" data-name="Group 291" transform="translate(0)">
    <path id="Path_231" data-name="Path 231" d="M28.427,6.047l-14.2,14.2a.553.553,0,0,0-.162.394v1.863a.557.557,0,0,0,.555.555h1.849a.569.569,0,0,0,.4-.162L31.078,8.7a.556.556,0,0,0,0-.787L29.215,6.047A.556.556,0,0,0,28.427,6.047Z" transform="translate(-14.063 -3.375)" fill="#55a0ff"/>
    <path id="Path_232" data-name="Path 232" d="M33.441,4.711,32.428,3.7l-.014-.014a1.243,1.243,0,0,0-.809-.309,1.218,1.218,0,0,0-.816.316l-.795.8a.285.285,0,0,0,0,.394l.731.731,1.526,1.526a.28.28,0,0,0,.4,0l.795-.795a1.2,1.2,0,0,0,.309-.816A1.272,1.272,0,0,0,33.441,4.711Z" transform="translate(-14.063 -3.375)" fill="#55a0ff"/>
  </g>
  <path id="Path_233" data-name="Path 233" d="M11.919,17.365a.755.755,0,0,1-.5.187H9.582a.678.678,0,0,1-.71-.637V15.261a.609.609,0,0,1,.208-.45l.035-.032L15.663,8.9a.158.158,0,0,0-.124-.271H4.854a2.483,2.483,0,0,0-2.6,2.339v8.925a2.483,2.483,0,0,0,2.6,2.339H16.208a2.483,2.483,0,0,0,2.6-2.339V11.564a.179.179,0,0,0-.3-.112l-6.556,5.881Z" transform="translate(-1.556 -3.886)" fill="#55a0ff"/>
</svg>
