<svg id="Icon_awesome-newspaper" data-name="Icon awesome-newspaper" xmlns="http://www.w3.org/2000/svg" width="25.5" height="17" viewBox="0 0 25.5 17">
  <path id="Icon_awesome-newspaper-2" data-name="Icon awesome-newspaper" d="M24.437,4.5H3.9A1.062,1.062,0,0,0,2.833,5.562v.354H1.062A1.062,1.062,0,0,0,0,6.979V19.021A2.479,2.479,0,0,0,2.479,21.5h20.9A2.125,2.125,0,0,0,25.5,19.375V5.562A1.062,1.062,0,0,0,24.437,4.5ZM2.479,19.375a.354.354,0,0,1-.354-.354V8.042h.708V19.021A.354.354,0,0,1,2.479,19.375Zm10.448-.708H6.2a.531.531,0,0,1-.531-.531v-.354A.531.531,0,0,1,6.2,17.25h6.729a.531.531,0,0,1,.531.531v.354A.531.531,0,0,1,12.927,18.667Zm9.208,0H15.406a.531.531,0,0,1-.531-.531v-.354a.531.531,0,0,1,.531-.531h6.729a.531.531,0,0,1,.531.531v.354A.531.531,0,0,1,22.135,18.667Zm-9.208-4.25H6.2a.531.531,0,0,1-.531-.531v-.354A.531.531,0,0,1,6.2,13h6.729a.531.531,0,0,1,.531.531v.354A.531.531,0,0,1,12.927,14.417Zm9.208,0H15.406a.531.531,0,0,1-.531-.531v-.354A.531.531,0,0,1,15.406,13h6.729a.531.531,0,0,1,.531.531v.354A.531.531,0,0,1,22.135,14.417Zm0-4.25H6.2a.531.531,0,0,1-.531-.531V7.865A.531.531,0,0,1,6.2,7.333H22.135a.531.531,0,0,1,.531.531V9.635A.531.531,0,0,1,22.135,10.167Z" transform="translate(0 -4.5)" fill="#55a0ff"/>
</svg>
