<svg id="Icon_awesome-users" data-name="Icon awesome-users" xmlns="http://www.w3.org/2000/svg" width="24.286" height="17" viewBox="0 0 24.286 17">
  <path id="Icon_awesome-users-2" data-name="Icon awesome-users" d="M3.643,9.536A2.429,2.429,0,1,0,1.214,7.107,2.431,2.431,0,0,0,3.643,9.536Zm17,0a2.429,2.429,0,1,0-2.429-2.429A2.431,2.431,0,0,0,20.643,9.536Zm1.214,1.214H19.429a2.421,2.421,0,0,0-1.711.706,5.551,5.551,0,0,1,2.85,4.151h2.5a1.213,1.213,0,0,0,1.214-1.214V13.179A2.431,2.431,0,0,0,21.857,10.75Zm-9.714,0A4.25,4.25,0,1,0,7.893,6.5,4.248,4.248,0,0,0,12.143,10.75Zm2.914,1.214h-.315a5.868,5.868,0,0,1-5.2,0H9.229a4.373,4.373,0,0,0-4.371,4.371v1.093A1.822,1.822,0,0,0,6.679,19.25H17.607a1.822,1.822,0,0,0,1.821-1.821V16.336A4.373,4.373,0,0,0,15.057,11.964Zm-8.489-.508a2.421,2.421,0,0,0-1.711-.706H2.429A2.431,2.431,0,0,0,0,13.179v1.214a1.213,1.213,0,0,0,1.214,1.214h2.5A5.565,5.565,0,0,1,6.569,11.456Z" transform="translate(0 -2.25)" fill="#55a0ff"/>
</svg>
