<svg id="Icon_metro-profile" data-name="Icon metro-profile" xmlns="http://www.w3.org/2000/svg" width="22.667" height="17" viewBox="0 0 22.667 17">
  <path id="Icon_metro-profile-2" data-name="Icon metro-profile" d="M25.546,10.141H23.961V7.762l-3.272-.05.017,2.429H10.874l.067-2.429-3.2.05v2.429l-1.619-.05A1.62,1.62,0,0,0,4.5,11.76V23.093a1.62,1.62,0,0,0,1.619,1.619H25.546a1.62,1.62,0,0,0,1.619-1.619V11.76A1.62,1.62,0,0,0,25.546,10.141ZM21.5,8.522h1.619V11.76H21.5ZM10.975,14.036a2.107,2.107,0,0,1,1.771,2.327,2.107,2.107,0,0,1-1.771,2.327A2.107,2.107,0,0,1,9.2,16.364,2.107,2.107,0,0,1,10.975,14.036ZM8.546,8.522h1.619V11.76H8.546ZM7.467,21.432s.192-1.54.628-1.83a6.209,6.209,0,0,1,1.692-.484s.814.87,1.161.87,1.16-.87,1.16-.87A6.189,6.189,0,0,1,13.8,19.6c.512.342.64,1.83.64,1.83H7.467Zm16.46-.767H16.642v-.81h7.286Zm0-1.619H16.642v-.81h7.286Zm0-1.619H16.642v-.81h7.286Zm0-1.619H16.642V15h7.286Z" transform="translate(-4.499 -7.712)" fill="#55a0ff"/>
</svg>
