<svg xmlns="http://www.w3.org/2000/svg" width="44" height="44" viewBox="0 0 44 44">
  <g id="twitter" transform="translate(-624.863 -526.863)">
    <circle id="Ellipse_16" data-name="Ellipse 16" cx="22" cy="22" r="22" transform="translate(624.863 526.863)" fill="rgba(255,255,255,0.2)"/>
    <g id="Ellipse_14" data-name="Ellipse 14" transform="translate(627.863 529.863)" fill="rgba(255,255,255,0.2)" stroke="rgba(255,255,255,0.74)" stroke-width="2">
      <circle cx="19" cy="19" r="19" stroke="none"/>
      <circle cx="19" cy="19" r="18" fill="none"/>
    </g>
    <path id="Icon_awesome-twitter" data-name="Icon awesome-twitter" d="M18.083,7.46c.013.179.013.358.013.537A11.672,11.672,0,0,1,6.343,19.75,11.673,11.673,0,0,1,0,17.9a8.545,8.545,0,0,0,1,.051,8.272,8.272,0,0,0,5.128-1.765,4.138,4.138,0,0,1-3.862-2.865,5.209,5.209,0,0,0,.78.064,4.369,4.369,0,0,0,1.087-.141A4.131,4.131,0,0,1,.818,9.187V9.135a4.16,4.16,0,0,0,1.867.524A4.137,4.137,0,0,1,1.407,4.135,11.741,11.741,0,0,0,9.924,8.458a4.663,4.663,0,0,1-.1-.946A4.135,4.135,0,0,1,16.97,4.685a8.132,8.132,0,0,0,2.622-1,4.119,4.119,0,0,1-1.816,2.276,8.281,8.281,0,0,0,2.379-.639A8.879,8.879,0,0,1,18.083,7.46Z" transform="translate(637.786 537.298)" fill="#fff"/>
  </g>
</svg>
